<?xml version="1.0" encoding="UTF-8"?>
<svg id="Layer_1" xmlns="http://www.w3.org/2000/svg" version="1.1" viewBox="0 0 178.81 208">
  <path fill="#fff" d="M145.67,208H32.95s.14-12.19.14-12.19h50.23s0-39.12,0-39.12h-49.12c-16.34-.28-30.05-11.94-33.39-27.37-3.49-16.1,4.57-32.19,19.51-39.09-7.6-25.16,7.06-51.43,32.25-58.32C55.24,13.4,71.29-.09,89.6,0c18.16.09,34,13.53,36.64,31.9,25.2,6.89,39.85,33.18,32.26,58.32,15.17,7.01,23.23,23.54,19.35,39.79-3.72,15.58-17.92,26.99-34.46,26.68h-47.89s0,39.13,0,39.13h50.23s-.06,12.18-.06,12.18ZM83.23,71.28l.11-18.23h12.15s.03,40.29.03,40.29l13.66-13.61,8.61,8.62-22.27,22.31-.04,33.85,48.96-.06c11.28-.01,20.4-8.71,21.93-19.39,1.56-10.92-4.9-21.46-15.56-24.74l-8.97-2.17,3.25-6.99c9.15-19.71-2.03-42.72-23.19-47.75l-7.33-1.28-.18-5.71c-.41-13-10.83-23.39-23.58-24.13-12.64-.73-24.09,8.35-26.12,21.09-.47,2.93-.33,5.51-.39,8.71l-4.34.71c-10.65,1.74-19.82,8.08-24.72,16.56-5.99,10.36-6.18,22.02-1.35,32.23l3.08,6.52-8.67,2.12c-10.96,3.16-17.59,14.03-15.83,25.15,1.69,10.71,10.94,19.09,22.22,19.1l48.62.04-.04-11.93-22.29-22.27,8.65-8.64,13.66,13.62.02-26.61-22.29-22.27,8.61-8.64,13.6,13.51Z"/>
</svg>
